<svg viewBox="0 0 100 100">
<g fill="#f7f7f7">
<path d="m30.604,22.559l.744-.823 4.618,4.172-.744,.824-4.618-4.173z"/>
<path d="m29.288,24.018l.745-.826 4.625,4.169-.744,.826-4.626-4.169z"/>
<path d="m33.336,28.817l-.744,.826-4.626-4.17 .744-.826 4.626,4.17z"/>
<path d="m31.924,21.091l.746-.825 4.617,4.177-.746,.825-4.617-4.177z"/>
<path d="m33.236,19.639l.744-.825 4.624,4.17-.744,.825-4.624-4.17z"/>
<path d="m41.182,20.122c.318-.353 .237-.946-.186-1.324l-3.1-2.796c-.422-.379-1.021-.402-1.34-.048l-.688,.765 4.624,4.168 .69-.765z"/>
<path d="m34.558,18.178l.745-.826 4.62,4.169-.745,.825-4.62-4.168z"/>
<path d="m26.695,26.887c-.316,.353-.234,.948 .187,1.327l3.101,2.795c.418,.378 1.021,.4 1.338,.048l.701-.777-4.625-4.171-.702,.778z"/>
<path d="m32.072,32.173c-1.077,1.18-1.961,3.454-1.961,5.053v59.867c0,1.599 1.307,2.907 2.906,2.907h64.075c1.6,0 2.907-1.309 2.907-2.907v-91.795c0-1.599-1.31-2.906-2.907-2.906h-22.658c-1.599,0-3.896,.855-5.105,1.899l-10.211,8.814c-1.21,1.046-2.219,2.764-2.219,3.823 0,2.202-.584,1.923-2.924,1.923h-6.808c-1.599,0-3.789,.965-4.867,2.145l-10.228,11.177zm55.946-22.271l-7.791,6.941c-1.197,1.063-3.479,1.933-5.08,1.933h-11.374c-1.601,0-1.931-.87-.735-1.933l7.792-6.941c1.195-1.062 3.48-1.933 5.077-1.933h11.374c1.6-0 1.931,.87 .737,1.933zm-26.427,52.301l-16.321-16.323c-.801-.801-.801-2.099 0-2.901 .801-.8 2.1-.8 2.9,0l16.322,16.323 16.32-16.323c.801-.8 2.1-.8 2.898,0 .805,.802 .805,2.1 0,2.901l-16.32,16.323 16.321,16.32c.804,.803 .804,2.1 0,2.899-.399,.401-.924,.603-1.448,.603-.525,0-1.05-.2-1.451-.603l-16.319-16.32-16.323,16.322c-.4,.401-.926,.602-1.451,.602-.523,0-1.049-.199-1.449-.602-.801-.801-.801-2.098 0-2.9l16.321-16.321z"/>
<path d="m32.874,15.327l-7.16,7.922c-.229,.254-.287,.583-.124,.73l1.211,1.091c.163,.149 .483,.062 .715-.193l7.16-7.923c.232-.254 .286-.584 .122-.732l-1.208-1.09c-.164-.148-.485-.06-.716,.195z"/>
<path d="m3.12,8.309h1.896v-4.101h-1.896c-.401,0-.728,.327-.728,.727v2.647c.001,.4 .327,.727 .728,.727z"/>
<path d="m15.417,4.208h-9.108v4.101h7.5c.401,0 .967,.222 1.258,.494l11.85,10.987c.293,.272 .754,.254 1.025-.038l1.802-1.942c.272-.293 .255-.755-.038-1.026l-13.03-12.081c-.292-.273-.858-.495-1.259-.495z"/>
<path d="m0,16.188c0,1.587 .952,2.872 2.124,2.872 1.174,0 2.123-1.285 2.123-2.872 0-1.704-1.229-3.661-1.763-4.98-.283-.697-.246-1.093-.36-1.093-.114,0-.087,.462-.358,1.19-.5,1.341-1.766,3.175-1.766,4.883z"/>
</g>
</svg>
