<svg width="282.821" xmlns="http://www.w3.org/2000/svg" height="412.001" viewBox="114.59 49.999 282.821 412.001" xmlns:xlink="http://www.w3.org/1999/xlink" enable-background="new 114.59 49.999 282.821 412.001">
<path fill="#359bcc" d="m139.59,131.775c-13.807,0-25,11.197-25,25.01v280.205c0,13.812 11.193,25.01 25,25.01h150.49c13.807,0 25-11.198 25-25.01v-280.224c0-13.802-11.186-24.99-24.98-24.99l-150.51-.001zm40.242,284.738h-30.996v-24.51h30.996v24.51zm0-44.311h-30.996v-24.51h30.996v24.51zm50.502,44.311h-30.996v-24.51h30.996v24.51zm0-44.311h-30.996v-24.51h30.996v24.51zm50.502,44.311h-30.996v-24.51h30.996v24.51zm0-44.311h-30.996v-24.51h30.996v24.51zm0-59.316h-132v-129.661h132v129.661zm2.615-201.479c13.445-.01 26.9,5.113 37.164,15.369 10.264,10.256 15.4,23.699 15.41,37.147h22.121c-.013-19.113-7.312-38.231-21.898-52.805-14.588-14.573-33.691-21.854-52.797-21.842v22.131zm0-38.726c23.354-.015 46.691,8.882 64.52,26.696 17.828,17.812 26.75,41.187 26.766,64.547h22.675c-.021-29.166-11.16-58.358-33.418-80.597-22.259-22.239-51.388-33.346-80.542-33.328v22.682z"/>
</svg>
